<?xml version="1.0" standalone="no"?>
<!DOCTYPE svg PUBLIC "-//W3C//DTD SVG 20010904//EN"
 "http://www.w3.org/TR/2001/REC-SVG-20010904/DTD/svg10.dtd">
<svg version="1.0" xmlns="http://www.w3.org/2000/svg"
 width="7501.000000pt" height="7501.000000pt" viewBox="0 0 7501.000000 7501.000000"
 preserveAspectRatio="xMidYMid meet">

<g transform="translate(0.000000,7501.000000) scale(0.100000,-0.100000)"
fill="#000000" stroke="none">
<path d="M0 37505 l0 -37495 37500 0 37500 0 0 37495 0 37495 -37500 0 -37500
0 0 -37495z m13020 23561 c662 -74 1217 -229 1719 -480 606 -304 1149 -763
1575 -1331 703 -937 1134 -2207 1261 -3710 48 -573 48 -1267 0 -1840 -175
-2072 -923 -3676 -2154 -4614 -647 -493 -1424 -794 -2311 -895 -424 -49 -952
-49 -1395 -1 -1846 203 -3498 1176 -4580 2700 -518 729 -881 1575 -1059 2465
-165 824 -165 1706 0 2530 386 1932 1622 3573 3379 4485 771 401 1593 631
2520 705 177 14 876 5 1045 -14z m49990 14 c1272 -88 2449 -525 3458 -1284
1427 -1073 2343 -2676 2541 -4441 170 -1511 -189 -3018 -1016 -4275 -1036
-1573 -2677 -2610 -4533 -2864 -359 -49 -923 -70 -1265 -47 -1163 78 -2096
448 -2880 1142 -1237 1094 -1925 2993 -1925 5314 0 1765 396 3294 1143 4410
826 1235 2053 1930 3607 2044 165 12 700 13 870 1z m-24125 -22250 c2304 -50
4350 -192 6395 -446 5388 -667 9360 -2007 10630 -3585 434 -539 551 -1103 344
-1656 -209 -559 -748 -1102 -1605 -1616 -1204 -722 -3035 -1367 -5309 -1871
-7220 -1599 -17665 -1514 -24517 199 -2199 550 -3839 1203 -4913 1959 -294
206 -648 526 -814 736 -149 188 -281 412 -349 595 -129 344 -130 717 -2 1060
543 1460 3313 2779 7660 3650 2805 562 6156 900 9645 974 535 12 2325 12 2835
1z"/>
<path d="M11570 56389 c-785 -88 -1442 -659 -1635 -1421 -77 -301 -77 -651 -1
-951 159 -626 635 -1134 1253 -1336 221 -73 313 -86 598 -86 234 0 258 2 376
28 70 15 169 40 220 57 131 43 396 177 509 257 125 89 357 321 442 443 465
661 478 1508 32 2177 -41 62 -78 114 -83 117 -4 3 -20 -32 -35 -77 -35 -105
-91 -201 -169 -283 -107 -115 -220 -184 -374 -230 -118 -35 -288 -37 -408 -5
-312 84 -536 327 -591 642 -37 211 24 456 150 614 56 69 60 65 -81 64 -70 -1
-162 -5 -203 -10z"/>
<path d="M63035 56259 c-760 -72 -1417 -610 -1639 -1342 -57 -188 -79 -343
-79 -557 0 -214 22 -369 79 -557 199 -658 752 -1166 1423 -1307 633 -134 1278
53 1735 502 525 516 707 1268 475 1967 -62 188 -193 436 -295 558 l-23 27 -12
-42 c-49 -187 -194 -375 -365 -476 -145 -86 -332 -125 -493 -105 -358 45 -629
298 -697 651 -42 221 23 477 163 642 27 31 30 39 17 44 -21 8 -178 5 -289 -5z"/>
<path d="M36335 35154 c-1194 -30 -1642 -47 -2500 -95 -3115 -172 -6415 -573
-9345 -1134 -433 -83 -1093 -220 -1162 -241 -42 -13 -8 -102 64 -170 63 -61
126 -100 261 -164 1102 -523 4926 -949 9867 -1100 1392 -42 2270 -54 3985 -54
1501 0 2170 7 3250 34 2746 69 5127 213 7055 425 2252 249 3617 572 3845 910
42 63 54 111 28 119 -106 32 -1093 229 -1708 341 -3199 582 -6695 964 -9980
1090 -868 33 -1093 37 -2295 39 -685 2 -1299 2 -1365 0z"/>
</g>
</svg>
